<svg width="20" height="21" viewBox="0 0 20 21" fill="none" xmlns="http://www.w3.org/2000/svg">
<rect y="0.136719" width="20" height="20" rx="4" fill="#EB3C4B" fill-opacity="0.7"/>
<path d="M4.68282 15.428H15.3176C16.4051 15.428 17.083 14.2487 16.5392 13.3095L11.2218 4.12236C10.6781 3.18317 9.32228 3.18317 8.77854 4.12236L3.46116 13.3095C2.91742 14.2487 3.59533 15.428 4.68282 15.428ZM10.0002 10.4849C9.61181 10.4849 9.29404 10.1671 9.29404 9.7787V8.36638C9.29404 7.97799 9.61181 7.66022 10.0002 7.66022C10.3886 7.66022 10.7064 7.97799 10.7064 8.36638V9.7787C10.7064 10.1671 10.3886 10.4849 10.0002 10.4849ZM10.7064 13.3095H9.29404V11.8972H10.7064V13.3095Z" fill="white"/>
</svg>
