<svg width="622" height="564" viewBox="0 0 622 564" fill="none" xmlns="http://www.w3.org/2000/svg">
<path opacity="0.3" d="M295.468 255.531L29.0879 101.711L29.1774 240.579L272.016 380.791L295.557 415.62L295.468 255.531Z" fill="url(#paint0_linear_1445_188)"/>
<path opacity="0.6" d="M0.714844 155.88V118.186L101.234 176.204V213.898L0.714844 155.88Z" fill="white"/>
<path opacity="0.15" d="M226.996 249.8L168.636 216.135V228.312L226.996 261.977V249.8Z" fill="white"/>
<path opacity="0.15" d="M226.995 274.155L114.481 209.242V221.419L226.995 286.331V274.155Z" fill="white"/>
<path opacity="0.15" d="M227.084 298.597L90.7607 219.896V232.073L227.084 310.774V298.597Z" fill="white"/>
<path opacity="0.6" d="M241.405 270.753C241.405 282.213 248.208 295.375 256.532 300.21C264.857 305.044 271.659 299.672 271.659 288.212C271.659 276.752 264.857 263.59 256.532 258.755C248.118 253.92 241.405 259.292 241.405 270.753Z" fill="white"/>
<path opacity="0.3" d="M318.475 140.838L584.854 294.659L584.944 433.528L342.016 293.227L318.564 300.927L318.475 140.838Z" fill="url(#paint1_linear_1445_188)"/>
<path opacity="0.6" d="M507.338 319.102V281.407L607.857 339.426V377.12L507.338 319.102Z" fill="white"/>
<path opacity="0.15" d="M386.949 214.166L445.309 247.831V260.008L386.949 226.343V214.166Z" fill="white"/>
<path opacity="0.15" d="M386.949 238.61L492.302 299.404V311.581L386.949 250.786V238.61Z" fill="white"/>
<path opacity="0.15" d="M387.036 262.963L523.359 341.664V353.841L387.036 275.14V262.963Z" fill="white"/>
<path opacity="0.6" d="M372.626 218.554C372.626 230.015 365.823 235.387 357.499 230.552C349.175 225.717 342.372 212.555 342.372 201.095C342.372 189.634 349.175 184.262 357.499 189.097C365.823 193.932 372.626 207.183 372.626 218.554Z" fill="white"/>
<path opacity="0.2" d="M621.283 480.354L462.225 388.491V471.4L621.283 563.263V480.354Z" fill="url(#paint2_linear_1445_188)"/>
<path opacity="0.15" d="M502.952 432.005L550.75 459.671V469.609L502.952 441.943V432.005Z" fill="white"/>
<path opacity="0.15" d="M502.952 451.971L604.814 510.796V520.913L502.952 462.089V451.971Z" fill="white"/>
<path opacity="0.6" d="M494.538 434.959C494.538 441.764 490.51 444.987 485.497 442.122C480.485 439.257 476.457 431.378 476.457 424.573C476.457 417.768 480.485 414.545 485.497 417.41C490.51 420.275 494.538 428.154 494.538 434.959Z" fill="white"/>
<path opacity="0.2" d="M180.895 353.214L21.8369 261.351V344.26L180.895 436.123V353.214Z" fill="url(#paint3_linear_1445_188)"/>
<path opacity="0.15" d="M62.5654 304.866L110.363 332.532V342.47L62.5654 314.804V304.866Z" fill="white"/>
<path opacity="0.15" d="M62.5654 324.831L164.427 383.656V393.773L62.5654 334.949V324.831Z" fill="white"/>
<path opacity="0.6" d="M54.1522 307.82C54.1522 314.625 50.1243 317.848 45.1117 314.983C40.0992 312.118 36.0713 304.239 36.0713 297.434C36.0713 290.629 40.0992 287.406 45.1117 290.271C50.1243 293.136 54.1522 301.015 54.1522 307.82Z" fill="white"/>
<path opacity="0.2" d="M204.619 57.2001L166.309 35.085V22.192L204.619 44.3071C207.751 46.0978 212.316 49.7687 216.165 55.4094C220.372 61.4082 223.326 69.0187 223.326 77.2559C223.326 86.3885 220.999 91.5815 216.613 93.014C212.495 94.3571 207.572 92.0292 204.619 90.328L188.865 81.1955L188.775 81.1059C187.433 80.3001 185.285 79.4943 183.584 80.0315C182.152 80.4792 180.63 81.8222 180.63 86.9257C180.63 92.0292 182.241 95.0734 183.494 96.9536C185.106 99.2815 187.254 100.893 188.596 101.609L188.775 101.699L236.932 129.544V142.437L189.044 114.771C185.732 113.07 180.988 109.399 176.871 103.669C172.395 97.3117 169.352 89.3431 169.352 80.4792C169.352 71.6152 172.395 67.1385 176.781 65.885C180.899 64.721 185.643 66.4222 188.954 68.392L204.529 77.3454C206.767 78.6885 208.468 79.2257 209.631 78.8675C210.526 78.5989 212.137 77.3455 212.137 70.8094C212.137 66.5117 210.795 63.7362 209.452 61.9455C207.93 59.6176 205.872 57.9164 204.619 57.2001Z" fill="white"/>
<path opacity="0.6" d="M173.288 32.3094C173.288 43.8594 166.486 49.321 158.161 44.5757C149.837 39.7408 143.034 26.4897 143.034 14.8502C143.034 3.3002 149.837 -2.16142 158.161 2.58391C166.486 7.41878 173.288 20.7594 173.288 32.3094Z" fill="white"/>
<path opacity="0.6" d="M256.532 146.914C256.532 158.464 249.73 163.925 241.405 159.18C233.081 154.345 226.278 141.094 226.278 129.454C226.278 117.904 233.081 112.443 241.405 117.188C249.73 122.023 256.532 135.364 256.532 146.914Z" fill="white"/>
<path opacity="0.2" d="M361.976 364.316V439.794C361.976 440.6 362.781 441.495 363.318 441.226L380.952 430.393L398.943 462.267C399.928 463.968 401.628 464.147 401.628 462.536V387.326L361.976 364.316Z" fill="url(#paint4_linear_1445_188)"/>
<defs>
<linearGradient id="paint0_linear_1445_188" x1="237.398" y1="199.882" x2="99.8368" y2="307.558" gradientUnits="userSpaceOnUse">
<stop stop-color="white"/>
<stop offset="1" stop-color="white" stop-opacity="0"/>
</linearGradient>
<linearGradient id="paint1_linear_1445_188" x1="432.903" y1="145.312" x2="467.357" y2="424.687" gradientUnits="userSpaceOnUse">
<stop stop-color="white"/>
<stop offset="1" stop-color="white" stop-opacity="0"/>
</linearGradient>
<linearGradient id="paint2_linear_1445_188" x1="559.684" y1="444.795" x2="523.789" y2="506.964" gradientUnits="userSpaceOnUse">
<stop stop-color="white"/>
<stop offset="1" stop-color="white" stop-opacity="0"/>
</linearGradient>
<linearGradient id="paint3_linear_1445_188" x1="119.296" y1="317.653" x2="83.4022" y2="379.822" gradientUnits="userSpaceOnUse">
<stop stop-color="white"/>
<stop offset="1" stop-color="white" stop-opacity="0"/>
</linearGradient>
<linearGradient id="paint4_linear_1445_188" x1="398.949" y1="402.898" x2="353.81" y2="431.476" gradientUnits="userSpaceOnUse">
<stop stop-color="white"/>
<stop offset="1" stop-color="white" stop-opacity="0"/>
</linearGradient>
</defs>
</svg>
