<svg width="297" height="85" viewBox="0 0 297 85" fill="none" xmlns="http://www.w3.org/2000/svg">
<path d="M274.601 47.1984H236.521L240.074 27.4993C240.75 23.756 244.451 20.691 248.301 20.691H279.382C283.231 20.691 285.829 23.7538 285.153 27.4993L282.828 40.3901C282.152 44.1357 278.449 47.1984 274.601 47.1984Z" fill="#E20613"/>
<path d="M250.645 27.1167H245.49C244.892 27.1167 244.666 27.3256 244.557 27.9136L242.501 39.9105C242.388 40.4662 242.557 40.6622 243.155 40.6622H245.262C245.86 40.6622 246.088 40.4662 246.201 39.9105L246.758 36.8413H249.041C251.867 36.8413 253.824 35.4413 254.309 32.329C254.807 29.1284 253.357 27.1167 250.645 27.1167ZM249.171 33.5222H247.34L247.825 30.4336H249.656C250.554 30.4336 250.952 31.0669 250.817 31.9909C250.667 32.9149 250.047 33.5222 249.171 33.5222Z" fill="white"/>
<path d="M263.254 27.1139H257.929C257.331 27.1139 257.103 27.3228 256.99 27.9108L254.938 39.981C254.824 40.4828 254.99 40.6616 255.588 40.6616H257.699C258.299 40.6616 258.525 40.4828 258.634 39.981L259.273 36.8385H259.758C260.577 36.8385 260.71 37.1142 260.917 37.6656L261.665 39.884C261.852 40.4483 262.243 40.6616 263.232 40.6616H265.076C265.637 40.6616 265.826 40.304 265.674 39.869L264.652 37.0991C264.55 36.8385 264.445 36.5628 264.328 36.3022C265.587 35.5462 266.474 34.2927 266.763 32.1625C267.274 28.8994 265.828 27.1139 263.254 27.1139ZM263.269 31.9536C263.141 32.9142 262.615 33.5216 261.83 33.5216H259.814L260.262 30.433H262.26C263.063 30.4308 263.408 31.021 263.269 31.9536Z" fill="white"/>
<path d="M267.68 32.1453L267.102 35.4019C266.565 38.5767 268.241 40.7757 271.922 40.7757C275.853 40.7757 278.084 38.9751 278.645 35.796L279.206 32.5394C279.765 29.3711 278.084 27.1139 274.397 27.1139C270.466 27.1139 268.222 28.9748 267.68 32.1453ZM275.688 32.1604L274.992 35.725C274.771 36.86 273.857 37.4588 272.479 37.4588C271.085 37.4588 270.426 36.8622 270.631 35.725L271.327 32.1604C271.548 31.0253 272.461 30.433 273.86 30.433C275.231 30.433 275.89 31.0253 275.688 32.1604Z" fill="white"/>
<path d="M31.8374 21.712H19.7118C18.1115 21.712 17.5136 22.2548 17.2157 23.7905L11.7236 55.2647C11.4214 56.8003 11.8737 57.3474 13.4695 57.3474H25.7496C35.6271 57.3474 41.7193 52.792 43.2522 44.1077L44.5415 36.4767C46.0852 27.7471 41.6693 21.712 31.8374 21.712ZM34.8335 35.8628L33.5877 43.188C32.9376 46.7979 30.8895 48.6825 26.8454 48.6825H22.7535L25.9496 30.3705H29.9937C34.0378 30.3705 35.4793 32.2508 34.8335 35.8628Z" fill="white"/>
<path d="M51.4422 23.7776L45.8631 55.2819C45.6153 56.7809 46.0153 57.2806 47.5221 57.2806H53.4512C54.9601 57.2806 55.5624 56.7809 55.8146 55.2819L61.3893 23.7776C61.6872 22.2763 61.2371 21.7723 59.7304 21.7723H53.8034C52.2945 21.7723 51.7444 22.2763 51.4422 23.7776Z" fill="white"/>
<path d="M64.6311 30.8486C62.9895 40.9308 70.5537 42.8434 76.3785 43.6726C79.9812 44.1357 82.7446 44.7086 82.4032 46.7246C81.9532 48.9474 79.5854 49.6711 75.7545 49.6711C72.8345 49.6711 71.1342 48.7385 70.5515 46.9292C70.0645 45.428 69.434 45.2751 67.8837 45.7899L62.9874 47.5517C61.4393 48.1182 60.8892 48.844 61.1371 50.3883C62.1372 55.6135 67.3467 58.3295 74.626 58.3295C84.6775 58.3295 90.7327 55.1031 92.0438 47.5517C93.681 38.0877 86.7148 35.3997 81.1074 34.5705C77.0525 34.1031 73.9498 33.6379 74.2912 31.4151C74.6282 29.608 76.3176 28.7249 80.1486 28.7249C82.6924 28.7249 84.2948 29.4508 84.921 31.4151C85.4559 32.9163 85.9386 33.1209 87.3431 32.5028L92.1416 30.4846C93.7353 29.8126 94.1332 29.2957 93.6332 27.8763C92.1416 23.5126 88.7955 20.9302 81.5031 20.9302C71.232 20.9323 65.7965 24.4539 64.6311 30.8486Z" fill="white"/>
<path d="M189.678 21.7098H175.452C173.852 21.7098 173.254 22.2526 172.956 23.7883L167.464 55.1677C167.162 56.7292 167.614 57.2806 169.21 57.2806H174.854C176.45 57.2806 177.05 56.7292 177.35 55.1677L179.046 45.4043H180.344C182.54 45.4043 182.888 46.2615 183.436 47.9738L185.434 54.8661C185.932 56.6258 186.982 57.2806 189.628 57.2806H194.694C196.242 57.2806 196.757 56.1735 196.335 54.8145L193.522 46.2098C193.244 45.4043 192.961 44.7517 192.631 44.1421C196.098 42.3695 198.538 39.4274 199.334 34.4283C200.714 26.3621 196.755 21.7098 189.678 21.7098ZM189.726 33.9351C189.376 36.1837 187.98 37.6095 185.884 37.6095H180.494L181.69 30.3705H187.032C189.18 30.3705 190.102 31.7446 189.726 33.9351Z" fill="white"/>
<path d="M203.313 34.2927L201.724 43.7093C200.278 52.5616 204.854 58.3016 214.723 58.3016C224.77 58.3016 230.908 53.5976 232.456 44.853L234.004 35.4364C235.5 26.5776 230.908 20.689 221.018 20.689C210.973 20.6911 204.807 25.5394 203.313 34.2927ZM224.318 34.3444L222.542 44.6462C221.981 47.9244 219.646 49.6453 216.143 49.6453C212.59 49.6453 210.873 47.9244 211.423 44.6462L213.199 34.3444C213.756 31.0662 216.091 29.3496 219.644 29.3496C223.151 29.3496 224.87 31.0662 224.318 34.3444Z" fill="white"/>
<path d="M167.577 18.6794C167.222 18.4769 166.764 18.4661 166.266 18.5609L136.794 48.4326H136.796L157.186 71.7954C158.13 72.4243 159.354 71.8492 159.597 70.6624C160.828 64.6123 168.203 21.3803 168.179 20.1418C168.166 19.3191 167.933 18.8797 167.577 18.6794Z" fill="#E20613"/>
<path d="M164.885 19.0276C164.19 19.3506 126.558 37.9211 113.852 44.2642C112.484 44.9469 112.626 47.1331 114.063 47.5962L136.796 48.434L166.268 18.5602C165.825 18.6442 165.353 18.81 164.885 19.0276Z" fill="#A41915"/>
<path d="M110.923 45.9406C110.804 44.3769 111.602 42.9316 112.956 42.2553C116.196 40.6378 121.088 38.2104 126.578 35.4923C126.623 35.2747 126.676 35.0658 126.715 34.8418C128.052 26.9587 124.095 21.7141 116.65 21.7141H102.874C101.274 21.7141 100.676 22.2569 100.378 23.7926L94.8839 55.1224C94.5839 56.7163 95.034 57.2827 96.6299 57.2827H102.274C103.87 57.2827 104.47 56.7163 104.77 55.1224L106.264 46.3304H110.982C110.958 46.2012 110.934 46.0741 110.923 45.9406ZM109.112 30.3704H114.004C116.4 30.3704 117.479 31.8587 117.1 34.0449C116.7 36.2289 115.054 37.6698 112.706 37.6698H107.814L109.112 30.3704Z" fill="white"/>
</svg>
